<svg id="eVYZhu4wd671" xmlns="http://www.w3.org/2000/svg" xmlns:xlink="http://www.w3.org/1999/xlink" viewBox="0 0 500 500" shape-rendering="geometricPrecision" text-rendering="geometricPrecision" project-id="fd9a641af2a144e3a99d066041fd064b" export-id="fe6375b3c97441adbcec45ae06f6b889" cached="false"><defs><linearGradient id="eVYZhu4wd673-fill" x1="0.5" y1="1" x2="0.5" y2="0" spreadMethod="pad" gradientUnits="objectBoundingBox" gradientTransform="translate(0 0)"><stop id="eVYZhu4wd673-fill-0" offset="0%" stop-color="#627de9"/><stop id="eVYZhu4wd673-fill-1" offset="100%" stop-color="#17e6d9"/></linearGradient><linearGradient id="eVYZhu4wd673-stroke" x1="0.5" y1="1" x2="0.5" y2="0" spreadMethod="pad" gradientUnits="objectBoundingBox" gradientTransform="translate(0 0)"><stop id="eVYZhu4wd673-stroke-0" offset="0%" stop-color="#5c6dcc"/><stop id="eVYZhu4wd673-stroke-1" offset="100%" stop-color="#1ad4cf"/></linearGradient><linearGradient id="eVYZhu4wd674-fill" x1="0.5" y1="1" x2="0.5" y2="0" spreadMethod="pad" gradientUnits="objectBoundingBox" gradientTransform="translate(0 0)"><stop id="eVYZhu4wd674-fill-0" offset="0%" stop-color="#616fd5"/><stop id="eVYZhu4wd674-fill-1" offset="100%" stop-color="#1ae2da"/></linearGradient><linearGradient id="eVYZhu4wd674-stroke" x1="0.5" y1="1" x2="0.5" y2="0" spreadMethod="pad" gradientUnits="objectBoundingBox" gradientTransform="translate(0 0)"><stop id="eVYZhu4wd674-stroke-0" offset="0%" stop-color="#5c6dcc"/><stop id="eVYZhu4wd674-stroke-1" offset="100%" stop-color="#1ad4cf"/></linearGradient></defs><path d="M171.390215,344.969997l42.520441,57.099606c4.710993,7.367508,20.319514,14.616291,32.863119,14.616291l173.26652-1.599736c4.340284.323487,5.962391-5.385623,2.554437-9.070104L277.090791,227.167098L171.390215,344.969997Z" transform="translate(.000003-.622756)" fill="url(#eVYZhu4wd673-fill)" fill-opacity="0" stroke="url(#eVYZhu4wd673-stroke)" stroke-width="25"/><path d="M97.484375,104.27253l.448155,307.79339c-.117443,1.92309,1.746888,4.840717,5.35766,4.562551c3.189836-.462906,4.715125-2.340185,6.9285-4.562551l61.171525-68.051902L277.090792,226.211122L395.636728,94.564976c1.238757-1.90336,1.3536-5.707798.262584-7.932661-1.033594-2.067189-4.137077-4.184344-6.853328-4.342055c0,0-136.681761,0-136.681761,0s-43.268083,55.702122-43.268083,55.702122v-56.090289l-93.948779.388167c-3.646189.189009-9.552084,4.513303-11.146786,6.566918-2.309568,1.924641-6.601039,9.843161-6.5162,15.415352Z" transform="translate(0 0.057426)" fill="url(#eVYZhu4wd674-fill)" fill-opacity="0" stroke="url(#eVYZhu4wd674-stroke)" stroke-width="25" stroke-linecap="round" stroke-linejoin="round"/></svg>
